<svg id="Layer_1" data-name="Layer 1" xmlns="http://www.w3.org/2000/svg" viewBox="0 0 128 128"><title>CROWN</title><path d="M89.84,25.134a2.413,2.413,0,1,1,2.412-2.413A2.415,2.415,0,0,1,89.84,25.134Z" style="fill:#fd852b"/><path d="M89.84,34.139a2.413,2.413,0,1,1,2.412-2.413A2.415,2.415,0,0,1,89.84,34.139Z" style="fill:#fd852b"/><path d="M85.337,29.636a2.413,2.413,0,1,1,2.413-2.413A2.415,2.415,0,0,1,85.337,29.636Z" style="fill:#fd852b"/><path d="M94.342,29.636a2.413,2.413,0,1,1,2.412-2.413A2.415,2.415,0,0,1,94.342,29.636Z" style="fill:#fd852b"/><path d="M22,103.14a2.413,2.413,0,1,1,2.413-2.413A2.416,2.416,0,0,1,22,103.14Z" style="fill:#fd852b"/><path d="M22,112.145a2.413,2.413,0,1,1,2.413-2.413A2.416,2.416,0,0,1,22,112.145Z" style="fill:#fd852b"/><path d="M17.5,107.642a2.413,2.413,0,1,1,2.413-2.413A2.416,2.416,0,0,1,17.5,107.642Z" style="fill:#fd852b"/><path d="M26.5,107.642a2.413,2.413,0,1,1,2.413-2.413A2.416,2.416,0,0,1,26.5,107.642Z" style="fill:#fd852b"/><rect x="37.781" y="15.488" width="6.542" height="6.542" transform="translate(-1.241 34.522) rotate(-44.999)" style="fill:#fd748c"/><rect x="100.96" y="105.971" width="6.542" height="6.542" transform="translate(-46.717 105.698) rotate(-45)" style="fill:#fd748c"/><ellipse cx="64" cy="67.091" rx="39.322" ry="16.365" style="fill:#fc6928"/><path d="M110.684,44.187l-8.661,39.269L100.385,90.9c0,3.821-16.292,6.91-36.385,6.91s-36.385-3.09-36.385-6.91l-1.637-7.446L17.316,44.187,47.522,62.725,64,36.628l16.478,26.1Z" style="fill:#f9d12f"/><rect x="60.631" y="66.504" width="6.737" height="6.737" transform="translate(-30.662 65.72) rotate(-45)" style="fill:#2ec3fc"/><path d="M102.023,83.456,100.385,90.9c0,3.821-16.292,6.91-36.385,6.91s-36.385-3.09-36.385-6.91l-1.637-7.446C33.021,86.093,47.409,87.885,64,87.885S94.978,86.093,102.023,83.456Z" style="fill:#fd852b"/><path d="M96.234,53.055,86.115,96.389c8.673-1.262,14.27-3.249,14.27-5.487l1.637-7.446,8.661-39.269Z" style="fill:#f8b62b"/><circle cx="110.684" cy="44.553" r="7.816" style="fill:#fd852b"/><path d="M86.115,96.389h0q.783-.114,1.531-.236l.13-.021q.7-.114,1.359-.235l.139-.025q.695-.127,1.354-.261l.031-.006c1.369-.28,2.616-.582,3.729-.9l.157-.046q.451-.132.871-.268l.214-.071q.383-.128.737-.258l.213-.079c.237-.09.462-.182.678-.274.052-.022.108-.044.158-.067a11.12,11.12,0,0,0,1.378-.711c.042-.026.078-.053.119-.079.143-.093.279-.186.4-.281.053-.041.1-.082.149-.123.1-.082.19-.164.272-.247.046-.046.088-.092.129-.138a2.6,2.6,0,0,0,.191-.244c.032-.046.066-.093.093-.139a1.77,1.77,0,0,0,.123-.263c.016-.041.037-.082.049-.123a1.387,1.387,0,0,0,.061-.389l1.637-7.446a66.129,66.129,0,0,1-13.58,2.966Z" style="fill:#fc6928"/><path d="M103.946,48.5a7.8,7.8,0,0,0,14.539-3.644A7.8,7.8,0,0,0,103.946,48.5Z" style="fill:#fc6928"/><polygon points="80.478 62.725 71.816 68 64 36.738 80.478 62.725" style="fill:#f8b62b"/><circle cx="64" cy="36.738" r="7.816" style="fill:#fc6928"/><path d="M62,29.19a7.806,7.806,0,0,0,0,15.1,7.806,7.806,0,0,0,0-15.1Z" style="fill:#fd852b"/><polygon points="47.522 62.725 42.812 69.873 17.316 44.187 47.522 62.725" style="fill:#f8b62b"/><circle cx="17.316" cy="44.553" r="7.816" style="fill:#fc6928"/><path d="M13.464,37.758a7.806,7.806,0,0,0,3.454,14.592,7.806,7.806,0,0,0-3.454-14.592Z" style="fill:#fd852b"/><polygon points="64 65.109 64 69.873 68.764 69.873 64 65.109" style="fill:#1ba4fc"/><polygon points="59.236 69.873 64 69.873 64 74.636 59.236 69.873" style="fill:#1ba4fc"/></svg>